<svg width="24" height="24" viewBox="0 0 24 24" fill="none" xmlns="http://www.w3.org/2000/svg">
<path d="M11.9854 18.2231C18.2622 18.2231 22.1074 13.2134 22.1074 11.7266C22.1074 10.2471 18.2622 5.24463 11.9854 5.24463C5.82568 5.24463 1.88525 10.2471 1.88525 11.7266C1.88525 13.2134 5.82568 18.2231 11.9854 18.2231ZM12 15.396C9.97119 15.396 8.30127 13.7114 8.30127 11.7339C8.30127 9.69775 9.97119 8.07178 12 8.07178C14.0288 8.07178 15.6987 9.70508 15.6987 11.7339C15.6987 13.7114 14.0288 15.396 12 15.396ZM11.9854 13.3086C12.8643 13.3086 13.5674 12.6055 13.5674 11.7485C13.5674 10.8843 12.8643 10.1665 11.9854 10.1665C11.1211 10.1665 10.4326 10.8843 10.4326 11.7485C10.4326 12.6055 11.1211 13.3086 11.9854 13.3086Z" fill="white"/>
</svg>
