<svg width="24" height="24" viewBox="0 0 24 24" fill="none" xmlns="http://www.w3.org/2000/svg">
<g id="ic-invisible">
<path id="Visibility Icon" d="M18.0938 18.7358C18.3574 18.9995 18.7822 18.9995 19.0386 18.7358C19.2949 18.4722 19.2949 18.0547 19.0386 17.791L5.9209 4.68066C5.65723 4.41699 5.2251 4.41699 4.96875 4.68066C4.7124 4.93701 4.7124 5.37646 4.96875 5.62549L18.0938 18.7358ZM18.7896 16.0112C20.9136 14.4805 22.1074 12.5542 22.1074 11.7266C22.1074 10.2471 18.2622 5.24463 11.9854 5.24463C10.7476 5.24463 9.60498 5.44238 8.55762 5.7793L10.9893 8.21094C11.3115 8.12305 11.6558 8.07178 12 8.07178C14.0288 8.07178 15.6987 9.70508 15.6987 11.7339C15.6987 12.0928 15.6475 12.437 15.5449 12.7593L18.7896 16.0112ZM11.9854 18.2231C13.2524 18.2231 14.4243 18.0181 15.4863 17.6738L13.0474 15.2349C12.7178 15.3447 12.3662 15.396 12 15.396C9.97119 15.396 8.30127 13.7114 8.30127 11.7339C8.30127 11.3604 8.35254 11.0015 8.46973 10.6572L5.25439 7.44922C3.1084 8.9873 1.88525 10.8989 1.88525 11.7266C1.88525 13.2134 5.82568 18.2231 11.9854 18.2231ZM14.4023 11.5874C14.4023 10.3203 13.377 9.2876 12.1099 9.2876C12.0879 9.2876 12.0806 9.2876 12.0659 9.2876L14.4023 11.624C14.4023 11.6094 14.4023 11.6021 14.4023 11.5874ZM9.53906 11.7998C9.53906 13.0596 10.5718 14.0923 11.8389 14.0923C11.8608 14.0923 11.8682 14.0923 11.8828 14.0923L9.54639 11.7485C9.53906 11.7705 9.53906 11.7778 9.53906 11.7998Z" fill="white"/>
</g>
</svg>
